<svg width="14" height="15" viewBox="0 0 14 15" fill="none" xmlns="http://www.w3.org/2000/svg">
<path d="M8.52501 14.3001C8.27996 14.3001 8.05376 14.1616 7.94326 13.9406L6.01406 10.0822C5.90811 9.87034 5.92631 9.61684 6.06086 9.42119L9.17501 5.20009L4.95326 8.31359C4.75761 8.44879 4.50411 8.46569 4.29221 8.36039L0.434461 6.43184C0.203061 6.31549 0.0620111 6.07304 0.0763111 5.81434C0.0899611 5.55564 0.257011 5.32944 0.500111 5.24039L12.8501 0.690388C13.0874 0.603938 13.3545 0.660488 13.5346 0.840538C13.714 1.01929 13.7725 1.28709 13.6847 1.52499L9.13471 13.875C9.04501 14.1181 8.81946 14.2851 8.56076 14.2988C8.54906 14.2994 8.53671 14.3001 8.52501 14.3001Z" fill="white"/>
</svg>
